<svg width="184" height="53" viewBox="0 0 184 53" fill="none" xmlns="http://www.w3.org/2000/svg">
<path d="M17.9587 44.0022C8.04045 44.0022 0.000120657 35.9211 0.000118914 25.9526L17.9587 25.9526L17.9587 44.0022Z" fill="#191B22"/>
<path d="M-2.7126e-06 8.00196C-1.21447e-06 17.9157 8.04033 25.9524 17.9586 25.9524L17.9586 8.00196L-2.7126e-06 8.00196Z" fill="#DC1414"/>
<path d="M36 25.99C36 16.0762 28.0039 8.03955 18.1401 8.03955L18.1401 25.99L36 25.99Z" fill="#D8D8D8"/>
<path d="M50.2237 14.4567V37.0022H54.1428V21.4802H54.3519L60.5827 36.9361H63.511L69.7418 21.5132H69.951V37.0022H73.87V14.4567H68.8722L62.179 30.7934H61.9148L55.2216 14.4567H50.2237ZM87.3687 29.8907C87.3687 32.4667 85.5303 33.7437 83.7689 33.7437C81.8534 33.7437 80.5764 32.3896 80.5764 30.243V20.0931H76.5913V30.8594C76.5913 34.9216 78.9031 37.2224 82.2277 37.2224C84.7597 37.2224 86.543 35.8903 87.3136 33.9969H87.4898V37.0022H91.3538V20.0931H87.3687V29.8907ZM97.8868 14.4567H93.9017V37.0022H97.8868V14.4567ZM108.878 20.0931H105.543V16.042H101.558V20.0931H99.1577V23.1755H101.558V32.5768C101.536 35.7582 103.847 37.3214 106.842 37.2334C107.976 37.2004 108.757 36.9802 109.186 36.8371L108.515 33.7217C108.295 33.7767 107.843 33.8758 107.348 33.8758C106.346 33.8758 105.543 33.5235 105.543 31.9163V23.1755H108.878V20.0931ZM110.661 37.0022H114.646V20.0931H110.661V37.0022ZM112.665 17.6932C113.931 17.6932 114.965 16.7245 114.965 15.5356C114.965 14.3356 113.931 13.3669 112.665 13.3669C111.388 13.3669 110.353 14.3356 110.353 15.5356C110.353 16.7245 111.388 17.6932 112.665 17.6932Z" fill="#191B22"/>
<path d="M117.877 37.0022H126.023C131.351 37.0022 133.553 34.4042 133.553 31.0136C133.553 27.4468 131.087 25.5093 129.017 25.3772V25.157C130.955 24.6286 132.672 23.3516 132.672 20.4454C132.672 17.1428 130.47 14.4567 125.759 14.4567H117.877V37.0022ZM120.607 34.5803V26.7423H126.155C129.105 26.7423 130.955 28.7238 130.955 31.0136C130.955 32.9951 129.59 34.5803 126.023 34.5803H120.607ZM120.607 24.3644V16.8786H125.759C128.753 16.8786 130.074 18.4638 130.074 20.4454C130.074 22.8232 128.137 24.3644 125.671 24.3644H120.607ZM141.112 37.3985C144.063 37.3985 145.604 35.8133 146.132 34.7124H146.264V37.0022H148.862V25.8616C148.862 20.4894 144.767 19.8729 142.609 19.8729C140.055 19.8729 137.149 20.7536 135.828 23.836L138.294 24.7167C138.867 23.4837 140.221 22.1627 142.698 22.1627C145.086 22.1627 146.264 23.4287 146.264 25.5974V25.6854C146.264 26.9404 144.987 26.8303 141.905 27.2266C138.767 27.6339 135.344 28.3275 135.344 32.2025C135.344 35.505 137.898 37.3985 141.112 37.3985ZM141.509 35.0647C139.439 35.0647 137.942 34.14 137.942 32.3346C137.942 30.353 139.747 29.7366 141.773 29.4724C142.874 29.3403 145.824 29.032 146.264 28.5036V30.8815C146.264 32.9951 144.591 35.0647 141.509 35.0647ZM154.652 26.8303C154.652 23.88 156.48 22.2067 158.968 22.2067C161.378 22.2067 162.843 23.781 162.843 26.434V37.0022H165.441V26.2579C165.441 21.9425 163.14 19.8729 159.716 19.8729C157.162 19.8729 155.577 21.0178 154.784 22.7352H154.564V20.0931H152.054V37.0022H154.652V26.8303ZM168.638 37.0022H171.236V30.6723L173.052 28.988L179.382 37.0022H182.685L175.012 27.3147L182.156 20.0931H178.942L171.544 27.6229H171.236V14.4567H168.638V37.0022Z" fill="#AAABB0"/>
</svg>
